<svg width="40" height="40" viewBox="0 0 40 40" fill="none" xmlns="http://www.w3.org/2000/svg">
<path opacity="0.1" d="M20 40C31.0457 40 40 31.0457 40 20C40 8.9543 31.0457 0 20 0C8.9543 0 0 8.9543 0 20C0 31.0457 8.9543 40 20 40Z" fill="#6B2ABC"/>
<path opacity="0.4" d="M20 9C13.935 9 9 13.935 9 20C9 26.065 13.935 31 20 31C26.065 31 31 26.065 31 20C31 13.935 26.065 9 20 9Z" fill="#6B2ABC"/>
<path d="M17.7595 16.9446H22.7189L21.6653 15.8911C21.3467 15.5725 21.3467 15.0575 21.6653 14.7389C21.9839 14.4204 22.499 14.4204 22.8176 14.7389L25.2614 17.1825C25.3372 17.2583 25.3967 17.3479 25.4383 17.4481C25.5206 17.6469 25.5206 17.8719 25.4383 18.0707C25.3967 18.171 25.3372 18.2605 25.2614 18.3363L22.8176 20.7799C22.6587 20.9388 22.45 21.0186 22.2414 21.0186C22.0328 21.0186 21.8242 20.9388 21.6653 20.7799C21.3467 20.4613 21.3467 19.9463 21.6653 19.6277L22.7189 18.5742H17.7595C16.8607 18.5742 16.1298 19.3051 16.1298 20.2038V24.6852C16.1298 25.135 15.7655 25.5 15.3149 25.5C14.8643 25.5 14.5 25.135 14.5 24.6852V20.2038C14.5 18.4064 15.9619 16.9446 17.7595 16.9446Z" fill="#6B2ABC"/>
</svg>
