<svg width="40" height="40" viewBox="0 0 40 40" fill="none" xmlns="http://www.w3.org/2000/svg">
<path opacity="0.1" d="M20 40C31.0457 40 40 31.0457 40 20C40 8.9543 31.0457 0 20 0C8.9543 0 0 8.9543 0 20C0 31.0457 8.9543 40 20 40Z" fill="#6B2ABC"/>
<path opacity="0.4" fill-rule="evenodd" clip-rule="evenodd" d="M14 26H26C28 26 29 24.923 29 22.769V15.23C29 13.076 28 11.999 26 11.999H14C12 11.999 11 13.076 11 15.23V22.769C11 24.923 12 26 14 26Z" fill="#6B2ABC"/>
<path d="M25 29.75H15C14.586 29.75 14.25 29.414 14.25 29C14.25 28.586 14.586 28.25 15 28.25H25C25.414 28.25 25.75 28.586 25.75 29C25.75 29.414 25.414 29.75 25 29.75Z" fill="#6B2ABC"/>
<path d="M22.582 18.2538L19.4331 16.3268C18.8061 15.9438 18 16.3929 18 17.1259V20.873C18 21.606 18.8061 22.056 19.4331 21.672L22.582 19.745C23.139 19.404 23.139 18.5958 22.582 18.2538Z" fill="#25314C"/>
</svg>
