<svg width="58" height="58" viewBox="0 0 58 58" fill="none" xmlns="http://www.w3.org/2000/svg">
<path d="M29.0002 58C45.0165 58 58.0002 45.0163 58.0002 29C58.0002 12.9837 45.0165 0 29.0002 0C12.984 0 0.000244141 12.9837 0.000244141 29C0.000244141 45.0163 12.984 58 29.0002 58Z" fill="#FF7355"/>
<path d="M36.5836 17.625H23.1669C20.3459 17.625 18.7919 19.179 18.7919 22V36C18.7919 38.6168 20.5501 40.375 23.1669 40.375H36.5836C38.0303 40.375 39.2086 39.1978 39.2086 37.75V30.75V20.25C39.2086 18.8022 38.0303 17.625 36.5836 17.625ZM25.5002 22.2917H32.5002C32.9833 22.2917 33.3752 22.6837 33.3752 23.1667C33.3752 23.6497 32.9833 24.0417 32.5002 24.0417H25.5002C25.0172 24.0417 24.6252 23.6497 24.6252 23.1667C24.6252 22.6837 25.0172 22.2917 25.5002 22.2917ZM25.5002 25.7917H30.1669C30.6499 25.7917 31.0419 26.1837 31.0419 26.6667C31.0419 27.1497 30.6499 27.5417 30.1669 27.5417H25.5002C25.0172 27.5417 24.6252 27.1497 24.6252 26.6667C24.6252 26.1837 25.0172 25.7917 25.5002 25.7917ZM37.4586 37.75C37.4586 38.233 37.0654 38.625 36.5836 38.625H23.1669C20.7986 38.625 20.5419 36.7887 20.5419 36C20.5419 35.2113 20.7986 33.375 23.1669 33.375H36.5836C36.7528 33.375 36.9162 33.3552 37.0761 33.3249C37.1274 33.3155 37.1763 33.298 37.2264 33.2851C37.3034 33.2653 37.3839 33.2513 37.4586 33.2245V37.75Z" fill="white"/>
</svg>
