<svg width="58" height="58" viewBox="0 0 58 58" fill="none" xmlns="http://www.w3.org/2000/svg">
<path d="M28.9998 58C45.016 58 57.9998 45.0163 57.9998 29C57.9998 12.9837 45.016 0 28.9998 0C12.9835 0 -0.000244141 12.9837 -0.000244141 29C-0.000244141 45.0163 12.9835 58 28.9998 58Z" fill="#FF7355"/>
<path d="M39.4998 40.375H18.4998C18.0168 40.375 17.6248 39.983 17.6248 39.5C17.6248 39.017 18.0168 38.625 18.4998 38.625H39.4998C39.9828 38.625 40.3748 39.017 40.3748 39.5C40.3748 39.983 39.9828 40.375 39.4998 40.375ZM31.3331 34.25V20.25C31.3331 19.0833 30.7498 18.5 29.5831 18.5H28.4164C27.2498 18.5 26.6664 19.0833 26.6664 20.25V34.25C26.6664 35.4167 27.2498 36 28.4164 36H29.5831C30.7498 36 31.3331 35.4167 31.3331 34.25ZM39.4998 34.25V24.9167C39.4998 23.75 38.9164 23.1667 37.7498 23.1667H36.5831C35.4164 23.1667 34.8331 23.75 34.8331 24.9167V34.25C34.8331 35.4167 35.4164 36 36.5831 36H37.7498C38.9164 36 39.4998 35.4167 39.4998 34.25ZM23.1664 34.25V28.4167C23.1664 27.25 22.5831 26.6667 21.4164 26.6667H20.2498C19.0831 26.6667 18.4998 27.25 18.4998 28.4167V34.25C18.4998 35.4167 19.0831 36 20.2498 36H21.4164C22.5831 36 23.1664 35.4167 23.1664 34.25Z" fill="white"/>
</svg>
