<svg width="40" height="40" viewBox="0 0 40 40" fill="none" xmlns="http://www.w3.org/2000/svg">
<path opacity="0.1" d="M20 40C31.0457 40 40 31.0457 40 20C40 8.9543 31.0457 0 20 0C8.9543 0 0 8.9543 0 20C0 31.0457 8.9543 40 20 40Z" fill="#6B2ABC"/>
<g opacity="0.4">
<path d="M26.65 20.45C23.91 23.19 21.84 23.93 18.22 24.89C18.05 24.94 17.86 24.89 17.73 24.76L15.21 22.24C15.08 22.11 15.03 21.91 15.09 21.74C16.15 18.23 16.88 16.16 19.62 13.42C22.63 10.41 27.14 10.97 28.38 11.19C28.58 11.23 28.74 11.38 28.78 11.58C29.03 12.83 29.67 17.44 26.66 20.45H26.65Z" fill="#6B2ABC"/>
</g>
<path d="M15.18 24.82C15.93 25.57 15.86 26.85 15.03 27.68C14.27 28.44 11.38 29.16 11.06 29.24C11.04 29.24 11.02 29.24 11 29.24C10.93 29.24 10.87 29.21 10.82 29.17C10.76 29.11 10.73 29.02 10.76 28.93C10.85 28.59 11.67 25.58 12.42 24.82C12.81 24.43 13.32 24.21 13.83 24.23C14.32 24.24 14.8 24.45 15.17 24.82H15.18ZM22.76 23.34C22.76 23.34 16.72 17.3 16.71 17.3C17.14 16.47 17.65 15.68 18.31 14.86C18.25 14.82 18.18 14.8 18.11 14.82L15.74 15.32C13.94 15.61 12.4 16.85 11.73 18.54L10.77 20.93C10.73 21.01 10.75 21.11 10.81 21.18C10.86 21.24 10.93 21.27 11 21.27C11.02 21.27 11.04 21.27 11.05 21.26L15.55 20.26C15.78 19.54 16.01 18.89 16.27 18.27L21.78 23.77C21.15 24.02 20.49 24.24 19.76 24.46L18.76 28.95C18.74 29.04 18.77 29.13 18.84 29.19C18.88 29.23 18.94 29.25 19 29.25C19.03 29.25 19.06 29.24 19.09 29.23L21.48 28.27C23.18 27.6 24.42 26.07 24.7 24.28L25.19 22.01C25.21 21.94 25.19 21.87 25.15 21.81C24.35 22.45 23.58 22.94 22.76 23.34ZM23.25 19.02C24.49 19.02 25.5 18.01 25.5 16.78C25.5 15.55 24.49 14.54 23.25 14.54C22.01 14.54 21 15.55 21 16.78C21 18.01 22.01 19.02 23.25 19.02Z" fill="#6B2ABC"/>
</svg>
