<svg width="59" height="58" viewBox="0 0 59 58" fill="none" xmlns="http://www.w3.org/2000/svg">
<path d="M29.5106 58C45.5269 58 58.5106 45.0163 58.5106 29C58.5106 12.9837 45.5269 0 29.5106 0C13.4944 0 0.51062 12.9837 0.51062 29C0.51062 45.0163 13.4944 58 29.5106 58Z" fill="#FF7355"/>
<path d="M38.8405 20.3316V36L38.8323 35.9836V36L36.0919 34.432C35.9823 34.3702 35.9156 34.2535 35.9156 34.1287C35.9156 34.1287 35.9156 24.9224 35.9156 24.8828C35.8678 21.9813 34.1119 20.2512 31.1789 20.25H25.0972C24.8942 20.25 24.8336 20.0727 24.8511 19.8709C24.9969 18.1862 25.9932 17.3333 27.8307 17.3333H35.8339H35.8421C37.8371 17.3333 38.8405 18.3366 38.8405 20.3316ZM34.1773 24.9995V40.6667L27.1773 36.6674L20.1773 40.6667V24.9995C20.1773 22.9999 21.1772 22 23.1768 22H31.1766C33.1774 22 34.1773 22.9999 34.1773 24.9995ZM24.9607 27.1334C24.9607 28.356 25.9558 29.3501 27.1773 29.3501C28.3988 29.3501 29.3938 28.356 29.3938 27.1334C29.3938 25.9107 28.3988 24.9167 27.1773 24.9167C25.9558 24.9167 24.9607 25.9107 24.9607 27.1334ZM30.7006 33.3703C30.7006 32.01 29.7067 30.6334 27.8073 30.6334H26.5495C24.649 30.6334 23.6562 32.01 23.6562 33.3703V33.6667C23.6562 33.9887 23.9175 34.25 24.2395 34.25H30.1184C30.4404 34.25 30.7018 33.9887 30.7018 33.6667V33.3703H30.7006Z" fill="white"/>
</svg>
