<svg width="40" height="40" viewBox="0 0 40 40" fill="none" xmlns="http://www.w3.org/2000/svg">
<path opacity="0.1" d="M20 40C31.0457 40 40 31.0457 40 20C40 8.9543 31.0457 0 20 0C8.9543 0 0 8.9543 0 20C0 31.0457 8.9543 40 20 40Z" fill="#6B2ABC"/>
<path opacity="0.4" d="M24 15H16C13 15 11 17 11 21V25C11 27 12 29 14 29H14.2529C15.3439 29 16.3631 28.453 16.9651 27.543C16.9651 27.543 17.972 26 20 26C22.028 26 23.0339 27.552 23.0339 27.552C23.6369 28.457 24.653 29 25.74 29H26C28 29 29 27 29 25V21C29 17 27 15 24 15Z" fill="#6B2ABC"/>
<path d="M18 20.25H16.75V19C16.75 18.586 16.414 18.25 16 18.25C15.586 18.25 15.25 18.586 15.25 19V20.25H14C13.586 20.25 13.25 20.586 13.25 21C13.25 21.414 13.586 21.75 14 21.75H15.25V23C15.25 23.414 15.586 23.75 16 23.75C16.414 23.75 16.75 23.414 16.75 23V21.75H18C18.414 21.75 18.75 21.414 18.75 21C18.75 20.586 18.414 20.25 18 20.25Z" fill="#6B2ABC"/>
<path d="M24.75 11C24.75 12.24 23.74 13.25 22.5 13.25H21.5C21.09 13.25 20.75 13.59 20.75 14V15H19.25V14C19.25 12.76 20.26 11.75 21.5 11.75H22.5C22.91 11.75 23.25 11.41 23.25 11C23.25 10.59 23.59 10.25 24 10.25C24.41 10.25 24.75 10.59 24.75 11Z" fill="#6B2ABC"/>
<path d="M26.25 19.751C26.25 20.303 25.802 20.751 25.25 20.751C24.698 20.751 24.25 20.303 24.25 19.751C24.25 19.199 24.698 18.751 25.25 18.751C25.802 18.751 26.25 19.199 26.25 19.751ZM22.75 21.25C22.198 21.25 21.75 21.698 21.75 22.25C21.75 22.802 22.198 23.25 22.75 23.25C23.302 23.25 23.75 22.802 23.75 22.25C23.75 21.698 23.302 21.25 22.75 21.25Z" fill="#6B2ABC"/>
</svg>
